<?xml version="1.0" standalone="no"?><!DOCTYPE svg PUBLIC "-//W3C//DTD SVG 1.1//EN" "http://www.w3.org/Graphics/SVG/1.1/DTD/svg11.dtd"><svg t="1695894692300" class="icon" viewBox="0 0 1024 1024" version="1.1" xmlns="http://www.w3.org/2000/svg" p-id="5216" xmlns:xlink="http://www.w3.org/1999/xlink" width="200" height="200"><path d="M801.292136 1024H222.7009C151.697642 1024 94.128939 966.709878 94.128939 896.026988V128.195877C94.128939 57.512987 151.697642 0.222865 222.7009 0.222865h385.729812c43.019826-0.682523 60.152539 0.912352 64.289463 0.912351V0.222865L929.871061 256.161925v639.865063c0 70.68289-57.568703 127.973012-128.578925 127.973012zM672.720175 64.205889v127.973012c0 35.330998 28.777387 63.983024 64.282498 63.983024h128.578925L672.720175 64.205889z m192.861423 255.946025H737.002673c-71.010222 0-128.571961-57.290122-128.571961-127.973013 0 0-1.497371-51.356353-0.912352-127.973012H222.7009c-35.505111 0-64.289463 28.645061-64.289463 63.989988v767.831111c0 35.337963 28.784352 63.989989 64.289463 63.989988h578.591236c35.505111 0 64.289463-28.652026 64.289462-63.989988V320.151914z" fill="" p-id="5217"></path></svg>